<svg xmlns="http://www.w3.org/2000/svg" viewBox="0 0 240 40" width="480" height="80"><rect width="240" height="40" rx="5" fill="#3d3d3d"/><g transform="translate(12 8)" fill="none" stroke="#ffffff" stroke-width="1.6" stroke-linecap="round" stroke-linejoin="round"><path d="M5 19 L14 10"/><circle cx="16" cy="8" r="3"/><path d="M4 20 h3"/></g><g transform="translate(44 8)" fill="none" stroke="#ffffff" stroke-width="1.6" stroke-linecap="round" stroke-linejoin="round"><path d="M4 16 L9 9 H20 L15 16 Z"/><path d="M8 19 L11 15" opacity="0.6"/></g><g transform="translate(76 8)" fill="none" stroke="#ffffff" stroke-width="1.6" stroke-linecap="round" stroke-linejoin="round"><path d="M7 13 C5.5 8 11 5 14 7 C18 9.5 19.5 13.5 16.5 16 C13.5 18.5 8.5 17.5 7 13 Z"/></g><g transform="translate(108 8)" fill="none" stroke="#ffffff" stroke-width="1.6" stroke-linecap="round" stroke-linejoin="round"><path d="M4 18 C8 13.5 16 13.5 20 18"/><path d="M8 5 v7 M12 4 v7 M16 5 v7"/><path d="M6.5 10.5 l1.5 1.5 l1.5 -1.5 M10.5 9.5 l1.5 1.5 l1.5 -1.5 M14.5 10.5 l1.5 1.5 l1.5 -1.5"/></g><g transform="translate(140 8)" fill="none" stroke="#ffffff" stroke-width="1.6" stroke-linecap="round" stroke-linejoin="round"><path d="M4 8 C8 8 9 5.5 13 6 S18 8 20 8"/><path d="M4 12 C8 12 9 10.5 13 11 S18 12 20 12"/><path d="M4 16 C8 16 9 17.5 13 17 S18 16 20 16"/></g><g transform="translate(172 8)" fill="none" stroke="#ffffff" stroke-width="1.6" stroke-linecap="round" stroke-linejoin="round"><path d="M5 5 V19 H19"/><path d="M7 16 C9.5 16 10 9 12.5 9.5 S15.5 15 18 11"/></g><g transform="translate(204 8)" fill="none" stroke="#ffffff" stroke-width="1.6" stroke-linecap="round" stroke-linejoin="round"><path d="M5 15 L12 8 L18 14 L13 19 H9 Z"/><path d="M8.5 11.5 L15 18"/><path d="M14 19 H19"/></g></svg>